<svg width="24" height="11" viewBox="0 0 24 11" fill="none" xmlns="http://www.w3.org/2000/svg">
<path fill-rule="evenodd" clip-rule="evenodd" d="M0 1.04632C0 0.468456 0.468454 0 1.04632 0H22.9537C23.5315 0 24 0.468454 24 1.04632V9.61308H19.6733C18.6463 6.35308 15.5992 3.9891 12 3.9891C8.40076 3.9891 5.35367 6.35308 4.32668 9.61308H0V1.04632Z" fill="#C61C31"/>
<path fill-rule="evenodd" clip-rule="evenodd" d="M4.6377 10.0708C5.50233 6.83223 8.45629 4.44684 11.9674 4.44684C15.4785 4.44684 18.4325 6.83223 19.2971 10.0708H16.8429C16.2011 7.98788 14.2611 6.47411 11.9675 6.47411C9.67394 6.47411 7.73393 7.98788 7.09207 10.0708H4.6377Z" fill="black"/>
<rect y="9.6131" width="4.31608" height="0.196185" fill="black"/>
<rect x="19.6838" y="9.6131" width="4.31608" height="0.196185" fill="black"/>
<path fill-rule="evenodd" clip-rule="evenodd" d="M11.9673 4.1853C8.40557 4.1853 5.39806 6.55815 4.43933 9.80928H0V10.0709H4.36712H4.6376H4.63762C5.50224 6.83226 8.45621 4.44687 11.9673 4.44687C15.3832 4.44687 18.2718 6.70463 19.2221 9.80928H19.2221C19.2486 9.89583 19.2736 9.98303 19.297 10.0709H19.297H19.5675H24V9.80928H19.4953C18.5365 6.55815 15.529 4.1853 11.9673 4.1853Z" fill="white"/>
<path fill-rule="evenodd" clip-rule="evenodd" d="M24 2.97196C23.8509 2.99579 23.698 3.00817 23.5422 3.00817C21.9531 3.00817 20.6648 1.71993 20.6648 0.13079C20.6648 0.0869575 20.6658 0.0433539 20.6678 0H20.275C20.2733 0.0433848 20.2725 0.0869868 20.2725 0.13079C20.2725 1.93663 21.7364 3.40054 23.5422 3.40054C23.6976 3.40054 23.8504 3.38971 24 3.36875V2.97196Z" fill="black"/>
<path fill-rule="evenodd" clip-rule="evenodd" d="M1.86786e-05 2.97196C0.149095 2.99579 0.301994 3.00817 0.457784 3.00817C2.04692 3.00817 3.33517 1.71993 3.33517 0.13079C3.33517 0.0869575 3.33419 0.0433539 3.33225 0H3.72497C3.72668 0.0433848 3.72754 0.0869868 3.72754 0.13079C3.72754 1.93663 2.26362 3.40054 0.457784 3.40054C0.302427 3.40054 0.1496 3.38971 1.86786e-05 3.36875V2.97196Z" fill="black"/>
<path fill-rule="evenodd" clip-rule="evenodd" d="M24.0001 5.69313C23.7303 5.73373 23.454 5.75477 23.1729 5.75477C20.1266 5.75477 17.6568 3.28426 17.6568 0.236429C17.6568 0.157218 17.6584 0.0783975 17.6617 0H17.269C17.266 0.0784266 17.2644 0.157246 17.2644 0.236429C17.2644 3.50082 19.9097 6.14714 23.1729 6.14714C23.4536 6.14714 23.7298 6.12755 24.0001 6.08967V5.69313Z" fill="black"/>
<path fill-rule="evenodd" clip-rule="evenodd" d="M-9.90257e-05 5.69313C0.269729 5.73373 0.545955 5.75477 0.827092 5.75477C3.87343 5.75477 6.34323 3.28426 6.34323 0.236429C6.34323 0.157218 6.34156 0.0783975 6.33825 0H6.73096C6.73404 0.0784266 6.7356 0.157246 6.7356 0.236429C6.7356 3.50082 4.09027 6.14714 0.827092 6.14714C0.546358 6.14714 0.270198 6.12755 -9.90257e-05 6.08967V5.69313Z" fill="black"/>
<path fill-rule="evenodd" clip-rule="evenodd" d="M12.4883 3.94017C15.9651 4.1606 18.8468 6.57213 19.7677 9.80927H19.4381C18.4909 6.55966 15.4901 4.18529 11.9346 4.18529C8.37918 4.18529 5.37831 6.55966 4.43114 9.80927H4.16699C5.08794 6.57213 7.9696 4.1606 11.4465 3.94017C11.4711 3.67418 11.6949 3.46594 11.9674 3.46594C12.2398 3.46594 12.4636 3.67418 12.4883 3.94017ZM12.2217 3.92762C12.194 3.81282 12.0907 3.72752 11.9674 3.72752C11.8441 3.72752 11.7407 3.81282 11.7131 3.92762C11.7975 3.92502 11.8823 3.92371 11.9674 3.92371C12.0525 3.92371 12.1372 3.92502 12.2217 3.92762Z" fill="black"/>
<circle cx="11.9674" cy="3.92369" r="0.26158" fill="white"/>
<rect x="11.7058" y="3.92371" width="0.523161" height="0.326975" fill="white"/>
</svg>
